<svg id="Calque_1" data-name="Calque 1" xmlns="http://www.w3.org/2000/svg" viewBox="0 0 83.55 100"><defs><style>.cls-1{fill:#fff;}</style></defs><title>loupe</title><path class="cls-1" d="M91.17,93.36l-26-35.5a33.65,33.65,0,1,0-7.32,5.36l26,35.5a3.14,3.14,0,0,0,4.38.68l2.26-1.66A3.14,3.14,0,0,0,91.17,93.36ZM20.86,49a26,26,0,1,1,36.4,5.64A26,26,0,0,1,20.86,49Z" transform="translate(-8.23)"/><path class="cls-1" d="M29.47,42.86a3.1,3.1,0,0,1-4.33-.67,15.69,15.69,0,0,1,3.39-21.91,3.09,3.09,0,0,1,3.65,5,9.5,9.5,0,0,0-2,13.26A3.1,3.1,0,0,1,29.47,42.86Z" transform="translate(-8.23)"/></svg>