<?xml version="1.0" encoding="utf-8"?>
<!-- Generator: Adobe Illustrator 24.0.1, SVG Export Plug-In . SVG Version: 6.00 Build 0)  -->
<svg version="1.1" id="Calque_1" xmlns="http://www.w3.org/2000/svg" xmlns:xlink="http://www.w3.org/1999/xlink" x="0px" y="0px"
	 viewBox="0 0 330.3 225.1" style="enable-background:new 0 0 330.3 225.1;" xml:space="preserve">
<style type="text/css">
	.st0{fill:#FFFFFF;}
</style>
<title>square_point</title>
<circle class="st0" cx="7.5" cy="7.5" r="7.5"/>
<circle class="st0" cx="42.5" cy="7.5" r="7.5"/>
<circle class="st0" cx="7.5" cy="42.5" r="7.5"/>
<circle class="st0" cx="77.6" cy="7.5" r="7.5"/>
<circle class="st0" cx="112.6" cy="7.5" r="7.5"/>
<circle class="st0" cx="147.6" cy="7.5" r="7.5"/>
<circle class="st0" cx="182.7" cy="7.5" r="7.5"/>
<circle class="st0" cx="217.7" cy="7.5" r="7.5"/>
<circle class="st0" cx="252.8" cy="7.5" r="7.5"/>
<circle class="st0" cx="287.8" cy="7.5" r="7.5"/>
<circle class="st0" cx="322.8" cy="7.5" r="7.5"/>
<circle class="st0" cx="42.5" cy="42.5" r="7.5"/>
<circle class="st0" cx="77.6" cy="42.5" r="7.5"/>
<circle class="st0" cx="112.6" cy="42.5" r="7.5"/>
<circle class="st0" cx="147.6" cy="42.5" r="7.5"/>
<circle class="st0" cx="182.7" cy="42.5" r="7.5"/>
<circle class="st0" cx="217.7" cy="42.5" r="7.5"/>
<circle class="st0" cx="252.8" cy="42.5" r="7.5"/>
<circle class="st0" cx="287.8" cy="42.5" r="7.5"/>
<circle class="st0" cx="322.8" cy="42.5" r="7.5"/>
<circle class="st0" cx="7.5" cy="77.5" r="7.5"/>
<circle class="st0" cx="42.6" cy="77.5" r="7.5"/>
<circle class="st0" cx="77.6" cy="77.5" r="7.5"/>
<circle class="st0" cx="112.6" cy="77.5" r="7.5"/>
<circle class="st0" cx="147.7" cy="77.5" r="7.5"/>
<circle class="st0" cx="182.7" cy="77.5" r="7.5"/>
<circle class="st0" cx="217.7" cy="77.5" r="7.5"/>
<circle class="st0" cx="252.8" cy="77.5" r="7.5"/>
<circle class="st0" cx="287.8" cy="77.5" r="7.5"/>
<circle class="st0" cx="322.8" cy="77.5" r="7.5"/>
<circle class="st0" cx="7.5" cy="112.5" r="7.5"/>
<circle class="st0" cx="42.6" cy="112.5" r="7.5"/>
<circle class="st0" cx="77.6" cy="112.5" r="7.5"/>
<circle class="st0" cx="112.7" cy="112.5" r="7.5"/>
<circle class="st0" cx="147.7" cy="112.5" r="7.5"/>
<circle class="st0" cx="182.7" cy="112.5" r="7.5"/>
<circle class="st0" cx="217.8" cy="112.5" r="7.5"/>
<circle class="st0" cx="252.8" cy="112.5" r="7.5"/>
<circle class="st0" cx="287.8" cy="112.5" r="7.5"/>
<circle class="st0" cx="322.9" cy="112.5" r="7.5"/>
<circle class="st0" cx="7.5" cy="147.6" r="7.5"/>
<circle class="st0" cx="42.6" cy="147.6" r="7.5"/>
<circle class="st0" cx="77.6" cy="147.6" r="7.5"/>
<circle class="st0" cx="112.7" cy="147.6" r="7.5"/>
<circle class="st0" cx="147.7" cy="147.6" r="7.5"/>
<circle class="st0" cx="182.7" cy="147.6" r="7.5"/>
<circle class="st0" cx="217.8" cy="147.6" r="7.5"/>
<circle class="st0" cx="252.8" cy="147.6" r="7.5"/>
<circle class="st0" cx="287.9" cy="147.6" r="7.5"/>
<circle class="st0" cx="322.9" cy="147.6" r="7.5"/>
<circle class="st0" cx="7.5" cy="182.6" r="7.5"/>
<circle class="st0" cx="42.6" cy="182.6" r="7.5"/>
<circle class="st0" cx="77.7" cy="182.6" r="7.5"/>
<circle class="st0" cx="112.7" cy="182.6" r="7.5"/>
<circle class="st0" cx="147.7" cy="182.6" r="7.5"/>
<circle class="st0" cx="182.8" cy="182.6" r="7.5"/>
<circle class="st0" cx="217.8" cy="182.6" r="7.5"/>
<circle class="st0" cx="252.8" cy="182.6" r="7.5"/>
<circle class="st0" cx="287.9" cy="182.6" r="7.5"/>
<circle class="st0" cx="322.9" cy="182.6" r="7.5"/>
<circle class="st0" cx="7.6" cy="217.6" r="7.5"/>
<circle class="st0" cx="42.6" cy="217.6" r="7.5"/>
<circle class="st0" cx="77.7" cy="217.6" r="7.5"/>
<circle class="st0" cx="112.7" cy="217.6" r="7.5"/>
<circle class="st0" cx="147.8" cy="217.6" r="7.5"/>
<circle class="st0" cx="182.8" cy="217.6" r="7.5"/>
<circle class="st0" cx="217.8" cy="217.6" r="7.5"/>
<circle class="st0" cx="252.9" cy="217.6" r="7.5"/>
<circle class="st0" cx="287.9" cy="217.6" r="7.5"/>
<circle class="st0" cx="322.9" cy="217.6" r="7.5"/>
</svg>
